<svg xmlns="http://www.w3.org/2000/svg" width="1660" height="782" viewBox="0 0 1660 782"><defs><style>.a{fill:#da918a;}.b{fill:#cb7c75;opacity:0.362;}</style></defs><g transform="translate(-2477 -18064)"><rect class="a" width="1660" height="782" transform="translate(2477 18064)"/><path class="b" d="M1125.162,579.108c17.321-32.094,77.066-58.211,115.874-31.746,38.895,26.465,35.611,64.014,26.263,77.37-9.3,13.326-28.781,27.3-50.731,12.386-12.69-8.653-10.216-19.346-7.308-23.571,2.952-4.182,8.248-5.542,13.688-4.4,5.384,1.23,11.315-1.939,10.187-8.349-1.186-6.367-5.57-9.941-9.781-12.806-4.226-2.894-28.318-13.891-47.317,13.4-19.028,27.333,2.851,62.119,22.24,75.373,19.433,13.153,76.937,26.19,107.034-22.052,34.366-55.028-1.187-105.253-26.885-131.53-3.906-2.923-7.7-5.961-11.329-9.087-47.027-33.266-102.316-20.866-140.284,11.879,1.245-2.127,2.561-4.225,3.906-6.323,28.65-44.075,72.32-71.437,116.684-77.934A219.2,219.2,0,0,0,1390.813,534.8a153.985,153.985,0,0,1,5.325,31.645,205.648,205.648,0,0,1-54.826-10.273c9.073,16.148,15.165,37.3,15.381,64.983.507,63.523-26.61,92.925-59.8,112.155-37.36,21.647-90.839,23.47-135.61-6.974-44.682-30.43-68.124-88.135-36.117-147.23m251.875,7.814c6.931,1.924,13.139,3.415,18.724,4.573a175.475,175.475,0,0,1-13.718,53.683c3.965-18.521,2.779-32.76-5.007-58.255m7.525-101.809c-1.534,10.953-10.651,18.723-20.359,17.363-9.739-1.375-16.365-11.359-14.846-22.312s10.678-18.709,20.431-17.35c9.7,1.389,16.336,11.359,14.774,22.3m-70.526-27.869c-9.347,5.846-21.184,3.849-26.392-4.471-5.166-8.334-1.8-19.823,7.567-25.683s21.184-3.864,26.378,4.456,1.81,19.824-7.553,25.7M1103.6,796.574s-11.576,28.91-40.473,28.91c-39.646,0-34.712-47.084,1.636-47.084,26.465,0,38.837,18.174,38.837,18.174m330.257-74.751,14.413,9.362-4.066-50.152L1396.73,697.7l14.3,9.3c-64.447,95.066-189.654,123.427-270.931,80.712l4.819-7.206q9.68-14.064,25.813-9.144c74.332,29.012,166.88-4.645,218.379-83.968,38.691-59.557,44.421-129.779,20.835-184.836.319-.449.666-.9.97-1.375,4.529-6.989,4.588-16.22.9-26.349.478-.665.955-1.36,1.4-2.083,12.184-18.767,11.793-40.631-.868-48.865a19.79,19.79,0,0,0-4.862-2.257,38.009,38.009,0,0,1-6.38,18.116,42.6,42.6,0,0,1-6.555,7.9,154.341,154.341,0,0,0-30.748-26.017,152.147,152.147,0,0,0-38.474-18.174,42.663,42.663,0,0,1,4.76-9.81,38.121,38.121,0,0,1,13.949-13.211,19.825,19.825,0,0,0-4.023-3.516c-12.676-8.233-32.817.333-45.015,19.1-.81,1.215-1.533,2.46-2.229,3.719-9.363,1.2-16.683,4.891-20.894,11.373-60.744-.188-123.889,33.743-163.147,94.242-51.093,78.658-44.741,175.923,10.722,232.239l.695.694q11.244,11.634,2.85,25.785l-6.323,9.767c-55.2-40.038-116.322-15.265-105.6,40.892,9.954,46.867,90.87,47.1,113.675-4.356,94.906,52.034,237.173,18.044,309.116-88.555m83.448-115.049c0,144.871-107.582,262.337-252.483,262.337-39.112,0-119.231-23.875-127.347-28.751,0,0-21.488,40.038-80.64,40.038-43.612,0-78.947-34.337-78.947-76.719,0-24.628,12.153-46.246,30.748-60.18a81.429,81.429,0,0,1,8.68-5.585c1.159-.666,2.229-1.375,3.416-1.953a78.18,78.18,0,0,1,12.906-5.238,256.094,256.094,0,0,1-13.007-28.578l-.189.072a261.525,261.525,0,0,1-17.942-95.442c0-144.871,117.437-262.322,262.322-262.322,144.9,0,252.483,117.451,252.483,262.322m39.473,0c0-161.222-130.7-291.913-291.956-291.913-161.221,0-291.941,130.691-291.941,291.913a289.6,289.6,0,0,0,21.154,108.668c-29.012,19.375-48.257,51.411-48.257,88.237,0,59.6,49.732,107.9,111.056,107.9a111.7,111.7,0,0,0,86.036-39.965A288.724,288.724,0,0,0,1264.823,898.7c161.252,0,291.956-130.691,291.956-291.927" transform="translate(1814.221 17861.947)"/></g></svg>